<mxfile host="app.diagrams.net" modified="2022-08-04T07:09:07.763Z" agent="5.0 (Windows NT 10.0; Win64; x64) AppleWebKit/537.36 (KHTML, like Gecko) Chrome/103.0.0.0 Safari/537.36" etag="BnAeAFK0_DMwjLLQvhTm" version="20.1.1" type="github">
  <diagram id="hn3gspX5cNu4kPClseN1" name="Page-1">
    <mxGraphModel dx="1422" dy="738" grid="1" gridSize="10" guides="1" tooltips="1" connect="1" arrows="1" fold="1" page="1" pageScale="1" pageWidth="827" pageHeight="1169" math="0" shadow="0">
      <root>
        <mxCell id="0" />
        <mxCell id="1" parent="0" />
        <mxCell id="kVoivnuUtMkIrkoLCB4u-5" style="edgeStyle=orthogonalEdgeStyle;rounded=0;orthogonalLoop=1;jettySize=auto;html=1;entryX=0.5;entryY=0;entryDx=0;entryDy=0;" edge="1" parent="1" source="kVoivnuUtMkIrkoLCB4u-2" target="kVoivnuUtMkIrkoLCB4u-4">
          <mxGeometry relative="1" as="geometry" />
        </mxCell>
        <mxCell id="kVoivnuUtMkIrkoLCB4u-2" value="start" style="shape=parallelogram;perimeter=parallelogramPerimeter;whiteSpace=wrap;html=1;fixedSize=1;" vertex="1" parent="1">
          <mxGeometry x="350" y="250" width="120" height="60" as="geometry" />
        </mxCell>
        <mxCell id="kVoivnuUtMkIrkoLCB4u-8" style="edgeStyle=orthogonalEdgeStyle;rounded=0;orthogonalLoop=1;jettySize=auto;html=1;entryX=0.5;entryY=0;entryDx=0;entryDy=0;" edge="1" parent="1" source="kVoivnuUtMkIrkoLCB4u-4" target="kVoivnuUtMkIrkoLCB4u-7">
          <mxGeometry relative="1" as="geometry" />
        </mxCell>
        <mxCell id="kVoivnuUtMkIrkoLCB4u-4" value="点击sheetinfo收藏" style="rounded=0;whiteSpace=wrap;html=1;" vertex="1" parent="1">
          <mxGeometry x="350" y="370" width="120" height="60" as="geometry" />
        </mxCell>
        <mxCell id="kVoivnuUtMkIrkoLCB4u-6" value="wylayerlike流程图&lt;br&gt;（收藏单首歌曲的流程图）" style="rounded=0;whiteSpace=wrap;html=1;" vertex="1" parent="1">
          <mxGeometry width="280" height="170" as="geometry" />
        </mxCell>
        <mxCell id="kVoivnuUtMkIrkoLCB4u-10" style="edgeStyle=orthogonalEdgeStyle;rounded=0;orthogonalLoop=1;jettySize=auto;html=1;entryX=0.5;entryY=0;entryDx=0;entryDy=0;" edge="1" parent="1" source="kVoivnuUtMkIrkoLCB4u-7" target="kVoivnuUtMkIrkoLCB4u-9">
          <mxGeometry relative="1" as="geometry" />
        </mxCell>
        <mxCell id="kVoivnuUtMkIrkoLCB4u-7" value="设置modaltype=like&lt;br&gt;设置likeid=所选歌曲id" style="rounded=0;whiteSpace=wrap;html=1;" vertex="1" parent="1">
          <mxGeometry x="350" y="490" width="120" height="60" as="geometry" />
        </mxCell>
        <mxCell id="kVoivnuUtMkIrkoLCB4u-12" style="edgeStyle=orthogonalEdgeStyle;rounded=0;orthogonalLoop=1;jettySize=auto;html=1;entryX=0.5;entryY=0;entryDx=0;entryDy=0;" edge="1" parent="1" source="kVoivnuUtMkIrkoLCB4u-9" target="kVoivnuUtMkIrkoLCB4u-11">
          <mxGeometry relative="1" as="geometry" />
        </mxCell>
        <mxCell id="kVoivnuUtMkIrkoLCB4u-9" value="wylayermodal组件监听modaltype的变化，如果发生变化，调用watchmodaltype方法" style="rounded=0;whiteSpace=wrap;html=1;" vertex="1" parent="1">
          <mxGeometry x="350" y="610" width="120" height="60" as="geometry" />
        </mxCell>
        <mxCell id="kVoivnuUtMkIrkoLCB4u-14" style="edgeStyle=orthogonalEdgeStyle;rounded=0;orthogonalLoop=1;jettySize=auto;html=1;entryX=0.5;entryY=0;entryDx=0;entryDy=0;" edge="1" parent="1" source="kVoivnuUtMkIrkoLCB4u-11" target="kVoivnuUtMkIrkoLCB4u-13">
          <mxGeometry relative="1" as="geometry" />
        </mxCell>
        <mxCell id="kVoivnuUtMkIrkoLCB4u-11" value="modaltype===like" style="rhombus;whiteSpace=wrap;html=1;" vertex="1" parent="1">
          <mxGeometry x="320" y="730" width="180" height="140" as="geometry" />
        </mxCell>
        <mxCell id="kVoivnuUtMkIrkoLCB4u-20" style="edgeStyle=orthogonalEdgeStyle;rounded=0;orthogonalLoop=1;jettySize=auto;html=1;entryX=0.5;entryY=0;entryDx=0;entryDy=0;" edge="1" parent="1" source="kVoivnuUtMkIrkoLCB4u-13" target="kVoivnuUtMkIrkoLCB4u-18">
          <mxGeometry relative="1" as="geometry" />
        </mxCell>
        <mxCell id="kVoivnuUtMkIrkoLCB4u-13" value="loadMySheets" style="rounded=0;whiteSpace=wrap;html=1;" vertex="1" parent="1">
          <mxGeometry x="350" y="930" width="120" height="60" as="geometry" />
        </mxCell>
        <mxCell id="kVoivnuUtMkIrkoLCB4u-15" value="Y" style="rounded=0;whiteSpace=wrap;html=1;" vertex="1" parent="1">
          <mxGeometry x="370" y="890" width="30" height="20" as="geometry" />
        </mxCell>
        <mxCell id="kVoivnuUtMkIrkoLCB4u-21" style="edgeStyle=orthogonalEdgeStyle;rounded=0;orthogonalLoop=1;jettySize=auto;html=1;entryX=0.5;entryY=0;entryDx=0;entryDy=0;" edge="1" parent="1" source="kVoivnuUtMkIrkoLCB4u-18" target="kVoivnuUtMkIrkoLCB4u-19">
          <mxGeometry relative="1" as="geometry" />
        </mxCell>
        <mxCell id="kVoivnuUtMkIrkoLCB4u-42" style="edgeStyle=orthogonalEdgeStyle;rounded=0;orthogonalLoop=1;jettySize=auto;html=1;entryX=0.5;entryY=0;entryDx=0;entryDy=0;" edge="1" parent="1" source="kVoivnuUtMkIrkoLCB4u-18" target="kVoivnuUtMkIrkoLCB4u-23">
          <mxGeometry relative="1" as="geometry" />
        </mxCell>
        <mxCell id="kVoivnuUtMkIrkoLCB4u-18" value="user是否登录" style="rhombus;whiteSpace=wrap;html=1;" vertex="1" parent="1">
          <mxGeometry x="330" y="1030" width="160" height="150" as="geometry" />
        </mxCell>
        <mxCell id="kVoivnuUtMkIrkoLCB4u-27" style="edgeStyle=orthogonalEdgeStyle;rounded=0;orthogonalLoop=1;jettySize=auto;html=1;entryX=0.5;entryY=0;entryDx=0;entryDy=0;" edge="1" parent="1" source="kVoivnuUtMkIrkoLCB4u-19" target="kVoivnuUtMkIrkoLCB4u-26">
          <mxGeometry relative="1" as="geometry" />
        </mxCell>
        <mxCell id="kVoivnuUtMkIrkoLCB4u-19" value="设置modalvisible=true&lt;br&gt;（即渲染wylayerlike）" style="rounded=0;whiteSpace=wrap;html=1;" vertex="1" parent="1">
          <mxGeometry x="345" y="1230" width="130" height="60" as="geometry" />
        </mxCell>
        <mxCell id="kVoivnuUtMkIrkoLCB4u-22" value="Y" style="rounded=0;whiteSpace=wrap;html=1;" vertex="1" parent="1">
          <mxGeometry x="370" y="1190" width="30" height="20" as="geometry" />
        </mxCell>
        <mxCell id="kVoivnuUtMkIrkoLCB4u-44" style="edgeStyle=orthogonalEdgeStyle;rounded=0;orthogonalLoop=1;jettySize=auto;html=1;" edge="1" parent="1" source="kVoivnuUtMkIrkoLCB4u-23">
          <mxGeometry relative="1" as="geometry">
            <mxPoint x="410" y="1780" as="targetPoint" />
            <Array as="points">
              <mxPoint x="665" y="1780" />
            </Array>
          </mxGeometry>
        </mxCell>
        <mxCell id="kVoivnuUtMkIrkoLCB4u-23" value="openmodal(modaltype.default)&lt;br&gt;（即渲染wylayerdefault）" style="rounded=0;whiteSpace=wrap;html=1;" vertex="1" parent="1">
          <mxGeometry x="570" y="1230" width="190" height="60" as="geometry" />
        </mxCell>
        <mxCell id="kVoivnuUtMkIrkoLCB4u-25" value="N" style="rounded=0;whiteSpace=wrap;html=1;" vertex="1" parent="1">
          <mxGeometry x="610" y="1080" width="30" height="20" as="geometry" />
        </mxCell>
        <mxCell id="kVoivnuUtMkIrkoLCB4u-29" style="edgeStyle=orthogonalEdgeStyle;rounded=0;orthogonalLoop=1;jettySize=auto;html=1;entryX=0.5;entryY=0;entryDx=0;entryDy=0;" edge="1" parent="1" source="kVoivnuUtMkIrkoLCB4u-26" target="kVoivnuUtMkIrkoLCB4u-28">
          <mxGeometry relative="1" as="geometry" />
        </mxCell>
        <mxCell id="kVoivnuUtMkIrkoLCB4u-26" value="点击某个歌单" style="rounded=0;whiteSpace=wrap;html=1;" vertex="1" parent="1">
          <mxGeometry x="350" y="1340" width="120" height="60" as="geometry" />
        </mxCell>
        <mxCell id="kVoivnuUtMkIrkoLCB4u-33" style="edgeStyle=orthogonalEdgeStyle;rounded=0;orthogonalLoop=1;jettySize=auto;html=1;entryX=0.5;entryY=0;entryDx=0;entryDy=0;" edge="1" parent="1" source="kVoivnuUtMkIrkoLCB4u-28" target="kVoivnuUtMkIrkoLCB4u-30">
          <mxGeometry relative="1" as="geometry" />
        </mxCell>
        <mxCell id="kVoivnuUtMkIrkoLCB4u-28" value="调用onlikesong方法" style="rounded=0;whiteSpace=wrap;html=1;" vertex="1" parent="1">
          <mxGeometry x="350" y="1450" width="120" height="60" as="geometry" />
        </mxCell>
        <mxCell id="kVoivnuUtMkIrkoLCB4u-32" style="edgeStyle=orthogonalEdgeStyle;rounded=0;orthogonalLoop=1;jettySize=auto;html=1;entryX=0.5;entryY=0;entryDx=0;entryDy=0;" edge="1" parent="1" source="kVoivnuUtMkIrkoLCB4u-30" target="kVoivnuUtMkIrkoLCB4u-31">
          <mxGeometry relative="1" as="geometry" />
        </mxCell>
        <mxCell id="kVoivnuUtMkIrkoLCB4u-36" style="edgeStyle=orthogonalEdgeStyle;rounded=0;orthogonalLoop=1;jettySize=auto;html=1;entryX=0.442;entryY=-0.05;entryDx=0;entryDy=0;entryPerimeter=0;" edge="1" parent="1" source="kVoivnuUtMkIrkoLCB4u-30" target="kVoivnuUtMkIrkoLCB4u-35">
          <mxGeometry relative="1" as="geometry" />
        </mxCell>
        <mxCell id="kVoivnuUtMkIrkoLCB4u-30" value="res===200" style="rhombus;whiteSpace=wrap;html=1;" vertex="1" parent="1">
          <mxGeometry x="370" y="1550" width="80" height="80" as="geometry" />
        </mxCell>
        <mxCell id="kVoivnuUtMkIrkoLCB4u-39" style="edgeStyle=orthogonalEdgeStyle;rounded=0;orthogonalLoop=1;jettySize=auto;html=1;entryX=0.5;entryY=0;entryDx=0;entryDy=0;" edge="1" parent="1" source="kVoivnuUtMkIrkoLCB4u-31" target="kVoivnuUtMkIrkoLCB4u-38">
          <mxGeometry relative="1" as="geometry" />
        </mxCell>
        <mxCell id="kVoivnuUtMkIrkoLCB4u-31" value="弹出成功提示&lt;br&gt;controlmodal(false)" style="rounded=0;whiteSpace=wrap;html=1;" vertex="1" parent="1">
          <mxGeometry x="350" y="1680" width="120" height="60" as="geometry" />
        </mxCell>
        <mxCell id="kVoivnuUtMkIrkoLCB4u-34" value="Y" style="rounded=0;whiteSpace=wrap;html=1;" vertex="1" parent="1">
          <mxGeometry x="370" y="1640" width="30" height="20" as="geometry" />
        </mxCell>
        <mxCell id="kVoivnuUtMkIrkoLCB4u-45" style="edgeStyle=orthogonalEdgeStyle;rounded=0;orthogonalLoop=1;jettySize=auto;html=1;" edge="1" parent="1" source="kVoivnuUtMkIrkoLCB4u-35">
          <mxGeometry relative="1" as="geometry">
            <mxPoint x="410" y="1780" as="targetPoint" />
            <Array as="points">
              <mxPoint x="240" y="1780" />
            </Array>
          </mxGeometry>
        </mxCell>
        <mxCell id="kVoivnuUtMkIrkoLCB4u-35" value="弹出错误提示" style="rounded=0;whiteSpace=wrap;html=1;" vertex="1" parent="1">
          <mxGeometry x="180" y="1680" width="120" height="60" as="geometry" />
        </mxCell>
        <mxCell id="kVoivnuUtMkIrkoLCB4u-37" value="N" style="rounded=0;whiteSpace=wrap;html=1;" vertex="1" parent="1">
          <mxGeometry x="290" y="1560" width="30" height="20" as="geometry" />
        </mxCell>
        <mxCell id="kVoivnuUtMkIrkoLCB4u-38" value="end" style="shape=parallelogram;perimeter=parallelogramPerimeter;whiteSpace=wrap;html=1;fixedSize=1;" vertex="1" parent="1">
          <mxGeometry x="350" y="1810" width="120" height="60" as="geometry" />
        </mxCell>
      </root>
    </mxGraphModel>
  </diagram>
</mxfile>
